<?xml version="1.0" encoding="utf-8"?>
<!-- Generator: Adobe Illustrator 26.2.1, SVG Export Plug-In . SVG Version: 6.00 Build 0)  -->
<svg version="1.1" xmlns="http://www.w3.org/2000/svg" xmlns:xlink="http://www.w3.org/1999/xlink" x="0px" y="0px"
	 viewBox="0 0 1920 1080" style="enable-background:new 0 0 1920 1080;" xml:space="preserve">
<style type="text/css">
	.st0{fill:url(#SVGID_1_);}
	.st1{fill:#303649;}
	.st2{fill:url(#SVGID_00000153666413526158624050000010552754944560183201_);}
	.st3{fill:#315D73;}
	.st4{fill:url(#SVGID_00000178890679739782158790000015255145418917077175_);}
	.st5{display:none;}
</style>
<g id="Layer_3">
</g>
<g id="visual">
	<linearGradient id="SVGID_1_" gradientUnits="userSpaceOnUse" x1="960.0003" y1="622" x2="960.0003" y2="1080">
		<stop  offset="0" style="stop-color:#303649"/>
		<stop  offset="1" style="stop-color:#315D73"/>
	</linearGradient>
	<path class="st0" d="M0,668l40,9c40,9,120,27,200,28s160-15,240,0s160,61,240,56.6c80-4.2,160-59,240-80.2c80-21.4,160-9.4,240,0
		c80,9.2,160,16,240,34.2c80,18.4,160,48.4,240,34.8c80-13.8,160-71,200-99.8l40-28.6v458h-40c-40,0-120,0-200,0s-160,0-240,0
		s-160,0-240,0s-160,0-240,0s-160,0-240,0s-160,0-240,0s-160,0-240,0s-160,0-200,0H0V668z"/>
	<path class="st1" d="M605.8,798C368.8,659.3,120.6,704.8-2.9,739.4l0.9,340.3l1922,0.2l0-347.7c-32.7-15.5-71.8-32.3-118.3-50.3
		c-256-99.2-286.7-129.3-432-20C1224.4,771.3,868.2,951.6,605.8,798z"/>
	
		<linearGradient id="SVGID_00000011741428733008600340000014769939047018154624_" gradientUnits="userSpaceOnUse" x1="959.5547" y1="138.689" x2="986.5984" y2="-216.0011" gradientTransform="matrix(1 0 0 -1 0 1080)">
		<stop  offset="0" style="stop-color:#315D73;stop-opacity:0.77"/>
		<stop  offset="0.5975" style="stop-color:#303649"/>
	</linearGradient>
	<path style="fill:url(#SVGID_00000011741428733008600340000014769939047018154624_);" d="M434,869c-174.9,39.4-335.8-8.7-434-57.9
		c-2.8-1.4,0,268.8,0,268.8l1918.3,0.2l1.7-265.5c-41.8-12.9-96-28.7-158-45.5c-252-68-416,80-584,48S718,805,434,869z"/>
	<path class="st3" d="M483.5,830.9c-246.4-83.2-409.3-21.3-460,20L0,868.3v211.6l1920,0.2l0-326c-46.2,74.8-191.8,190.5-428.5,76.9
		c-240-115.2-422.7-74.7-484-40C935.5,838.9,729.9,914.1,483.5,830.9z"/>
	
		<linearGradient id="SVGID_00000182524912449669312770000009596275903723018684_" gradientUnits="userSpaceOnUse" x1="960.0001" y1="289" x2="960.0001" y2="9.094947e-13" gradientTransform="matrix(1 0 0 -1 0 1080)">
		<stop  offset="0" style="stop-color:#78C1BF"/>
		<stop  offset="1" style="stop-color:#315D73"/>
	</linearGradient>
	<path style="fill:url(#SVGID_00000182524912449669312770000009596275903723018684_);" d="M609.8,804.1
		c-256-25.6-511.9,96-609.8,161.4v114.4l1920,0.2l0-168c0,0-169.7-68.3-289.8-107.9c-169.4-56-225.9,84-489.5,116
		C877.2,952,929.9,836.1,609.8,804.1z"/>
</g>
<g id="Layer_2" class="st5">
</g>
</svg>
